STARTFONT 2.1
FONT -FontForge-BritishRailLightNormal-Book-R-Normal--9-90-75-75-P-66-ISO10646-1
SIZE 9 75 75
FONTBOUNDINGBOX 13 10 0 -3
COMMENT "Generated by fontforge, http://fontforge.sourceforge.net"
COMMENT "British Rail"
STARTPROPERTIES 39
FOUNDRY "FontForge"
FAMILY_NAME "BritishRailLightNormal"
WEIGHT_NAME "Book"
SLANT "R"
SETWIDTH_NAME "Normal"
ADD_STYLE_NAME ""
PIXEL_SIZE 9
POINT_SIZE 90
RESOLUTION_X 75
RESOLUTION_Y 75
SPACING "P"
AVERAGE_WIDTH 66
CHARSET_REGISTRY "ISO10646"
CHARSET_ENCODING "1"
FONTNAME_REGISTRY ""
CHARSET_COLLECTIONS "ISO10646-1"
FONT_NAME "BritishRailLightNormal"
FACE_NAME "BritishRailLightNormal"
COPYRIGHT "British Rail"
FONT_VERSION "Macromedia Fontographer 4.1.5 19/7/01"
FONT_ASCENT 7
FONT_DESCENT 2
UNDERLINE_POSITION 0
UNDERLINE_THICKNESS 0
X_HEIGHT 4
CAP_HEIGHT 5
RAW_ASCENT 800
RAW_DESCENT 200
NORM_SPACE 2
RELATIVE_WEIGHT 40
RELATIVE_SETWIDTH 50
SUPERSCRIPT_X 0
SUPERSCRIPT_Y 4
SUPERSCRIPT_SIZE 5
SUBSCRIPT_X 0
SUBSCRIPT_Y 1
SUBSCRIPT_SIZE 5
AVG_LOWERCASE_WIDTH 58
AVG_UPPERCASE_WIDTH 56
ENDPROPERTIES
CHARS 164
STARTCHAR space
ENCODING 32
SWIDTH 199 0
DWIDTH 2 0
BBX 1 1 0 0
BITMAP
00
ENDCHAR
STARTCHAR exclam
ENCODING 33
SWIDTH 256 0
DWIDTH 2 0
BBX 1 6 1 0
BITMAP
80
80
80
80
80
80
ENDCHAR
STARTCHAR numbersign
ENCODING 35
SWIDTH 1002 0
DWIDTH 9 0
BBX 9 9 0 -2
BITMAP
FF80
FB80
FF80
D380
F780
E780
8B80
FB80
FF80
ENDCHAR
STARTCHAR dollar
ENCODING 36
SWIDTH 1295 0
DWIDTH 12 0
BBX 9 9 1 -2
BITMAP
0400
1B00
2E80
3500
7100
A100
E600
E200
1C00
ENDCHAR
STARTCHAR percent
ENCODING 37
SWIDTH 1296 0
DWIDTH 12 0
BBX 6 9 3 -2
BITMAP
C0
C0
C0
80
40
40
20
1C
0C
ENDCHAR
STARTCHAR ampersand
ENCODING 38
SWIDTH 601 0
DWIDTH 5 0
BBX 5 6 0 0
BITMAP
60
50
60
A8
98
78
ENDCHAR
STARTCHAR parenleft
ENCODING 40
SWIDTH 338 0
DWIDTH 3 0
BBX 2 7 0 -1
BITMAP
40
80
80
80
80
80
40
ENDCHAR
STARTCHAR parenright
ENCODING 41
SWIDTH 338 0
DWIDTH 3 0
BBX 3 7 0 -1
BITMAP
80
40
40
20
40
40
80
ENDCHAR
STARTCHAR asterisk
ENCODING 42
SWIDTH 1295 0
DWIDTH 12 0
BBX 9 9 2 -2
BITMAP
1800
3C00
0000
3C00
FF80
E680
F200
6300
6300
ENDCHAR
STARTCHAR plus
ENCODING 43
SWIDTH 1296 0
DWIDTH 12 0
BBX 9 9 1 -2
BITMAP
1400
1400
1400
0800
FF80
EC80
1400
7700
6700
ENDCHAR
STARTCHAR comma
ENCODING 44
SWIDTH 167 0
DWIDTH 2 0
BBX 1 1 0 0
BITMAP
80
ENDCHAR
STARTCHAR hyphen
ENCODING 45
SWIDTH 272 0
DWIDTH 2 0
BBX 2 1 0 2
BITMAP
C0
ENDCHAR
STARTCHAR period
ENCODING 46
SWIDTH 165 0
DWIDTH 1 0
BBX 1 1 0 0
BITMAP
80
ENDCHAR
STARTCHAR slash
ENCODING 47
SWIDTH 314 0
DWIDTH 3 0
BBX 2 6 0 -1
BITMAP
40
40
80
80
80
80
ENDCHAR
STARTCHAR zero
ENCODING 48
SWIDTH 616 0
DWIDTH 6 0
BBX 5 6 0 0
BITMAP
70
98
88
88
98
70
ENDCHAR
STARTCHAR one
ENCODING 49
SWIDTH 305 0
DWIDTH 3 0
BBX 2 6 0 0
BITMAP
40
C0
40
40
40
40
ENDCHAR
STARTCHAR two
ENCODING 50
SWIDTH 546 0
DWIDTH 5 0
BBX 4 6 0 0
BITMAP
70
90
10
30
40
F0
ENDCHAR
STARTCHAR three
ENCODING 51
SWIDTH 574 0
DWIDTH 5 0
BBX 5 6 0 0
BITMAP
70
90
10
30
98
70
ENDCHAR
STARTCHAR four
ENCODING 52
SWIDTH 600 0
DWIDTH 5 0
BBX 5 6 0 0
BITMAP
10
30
50
90
F8
10
ENDCHAR
STARTCHAR five
ENCODING 53
SWIDTH 564 0
DWIDTH 5 0
BBX 4 6 0 0
BITMAP
F0
80
F0
10
90
70
ENDCHAR
STARTCHAR six
ENCODING 54
SWIDTH 568 0
DWIDTH 5 0
BBX 4 6 0 0
BITMAP
70
90
F0
90
90
70
ENDCHAR
STARTCHAR seven
ENCODING 55
SWIDTH 477 0
DWIDTH 4 0
BBX 4 6 0 0
BITMAP
F0
10
30
20
20
40
ENDCHAR
STARTCHAR eight
ENCODING 56
SWIDTH 565 0
DWIDTH 5 0
BBX 5 6 0 0
BITMAP
70
90
D0
F0
98
70
ENDCHAR
STARTCHAR nine
ENCODING 57
SWIDTH 568 0
DWIDTH 5 0
BBX 4 6 0 0
BITMAP
70
90
90
F0
10
70
ENDCHAR
STARTCHAR colon
ENCODING 58
SWIDTH 167 0
DWIDTH 2 0
BBX 1 1 0 3
BITMAP
80
ENDCHAR
STARTCHAR semicolon
ENCODING 59
SWIDTH 167 0
DWIDTH 2 0
BBX 1 3 0 0
BITMAP
80
00
80
ENDCHAR
STARTCHAR less
ENCODING 60
SWIDTH 1296 0
DWIDTH 12 0
BBX 4 9 4 -2
BITMAP
60
20
60
F0
F0
60
F0
60
20
ENDCHAR
STARTCHAR equal
ENCODING 61
SWIDTH 1700 0
DWIDTH 15 0
BBX 11 7 2 -1
BITMAP
1800
0600
FFE0
0600
FFE0
FFE0
0700
ENDCHAR
STARTCHAR greater
ENCODING 62
SWIDTH 1296 0
DWIDTH 12 0
BBX 5 9 3 -2
BITMAP
20
20
70
70
A8
F8
50
50
D8
ENDCHAR
STARTCHAR question
ENCODING 63
SWIDTH 542 0
DWIDTH 5 0
BBX 4 6 0 0
BITMAP
60
90
10
60
40
40
ENDCHAR
STARTCHAR at
ENCODING 64
SWIDTH 1296 0
DWIDTH 12 0
BBX 9 9 1 -2
BITMAP
FF80
FF80
F780
F780
C180
F780
F780
F780
FF80
ENDCHAR
STARTCHAR A
ENCODING 65
SWIDTH 619 0
DWIDTH 6 0
BBX 5 6 0 0
BITMAP
30
70
50
50
F8
88
ENDCHAR
STARTCHAR B
ENCODING 66
SWIDTH 618 0
DWIDTH 6 0
BBX 5 6 0 0
BITMAP
F0
90
90
F8
88
F0
ENDCHAR
STARTCHAR C
ENCODING 67
SWIDTH 620 0
DWIDTH 6 0
BBX 5 6 0 0
BITMAP
70
C8
80
80
88
70
ENDCHAR
STARTCHAR D
ENCODING 68
SWIDTH 643 0
DWIDTH 6 0
BBX 5 6 0 0
BITMAP
F0
98
88
88
98
F0
ENDCHAR
STARTCHAR E
ENCODING 69
SWIDTH 557 0
DWIDTH 5 0
BBX 4 6 0 0
BITMAP
F0
80
80
E0
80
F0
ENDCHAR
STARTCHAR F
ENCODING 70
SWIDTH 539 0
DWIDTH 5 0
BBX 4 6 0 0
BITMAP
F0
80
80
F0
80
80
ENDCHAR
STARTCHAR G
ENCODING 71
SWIDTH 657 0
DWIDTH 6 0
BBX 5 6 0 0
BITMAP
70
C8
80
98
88
78
ENDCHAR
STARTCHAR H
ENCODING 72
SWIDTH 625 0
DWIDTH 6 0
BBX 5 6 0 0
BITMAP
98
98
98
F8
98
98
ENDCHAR
STARTCHAR I
ENCODING 73
SWIDTH 240 0
DWIDTH 2 0
BBX 1 6 0 0
BITMAP
80
80
80
80
80
80
ENDCHAR
STARTCHAR J
ENCODING 74
SWIDTH 320 0
DWIDTH 3 0
BBX 2 6 0 0
BITMAP
40
40
40
40
40
C0
ENDCHAR
STARTCHAR K
ENCODING 75
SWIDTH 584 0
DWIDTH 5 0
BBX 4 6 0 0
BITMAP
90
A0
E0
E0
90
90
ENDCHAR
STARTCHAR L
ENCODING 76
SWIDTH 520 0
DWIDTH 5 0
BBX 4 6 0 0
BITMAP
80
80
80
80
80
F0
ENDCHAR
STARTCHAR M
ENCODING 77
SWIDTH 757 0
DWIDTH 7 0
BBX 6 6 0 0
BITMAP
CC
CC
D4
B4
B4
A4
ENDCHAR
STARTCHAR N
ENCODING 78
SWIDTH 680 0
DWIDTH 6 0
BBX 5 6 0 0
BITMAP
C8
C8
A8
A8
98
98
ENDCHAR
STARTCHAR O
ENCODING 79
SWIDTH 660 0
DWIDTH 6 0
BBX 5 6 0 0
BITMAP
70
C8
88
88
88
70
ENDCHAR
STARTCHAR P
ENCODING 80
SWIDTH 564 0
DWIDTH 5 0
BBX 4 6 0 0
BITMAP
F0
90
90
F0
80
80
ENDCHAR
STARTCHAR Q
ENCODING 81
SWIDTH 668 0
DWIDTH 6 0
BBX 5 7 0 -1
BITMAP
70
C8
88
88
88
78
08
ENDCHAR
STARTCHAR R
ENCODING 82
SWIDTH 581 0
DWIDTH 5 0
BBX 4 6 0 0
BITMAP
F0
90
90
F0
90
90
ENDCHAR
STARTCHAR S
ENCODING 83
SWIDTH 604 0
DWIDTH 5 0
BBX 5 6 0 0
BITMAP
70
88
E0
38
88
70
ENDCHAR
STARTCHAR T
ENCODING 84
SWIDTH 493 0
DWIDTH 4 0
BBX 4 6 0 0
BITMAP
F0
20
20
20
20
20
ENDCHAR
STARTCHAR U
ENCODING 85
SWIDTH 648 0
DWIDTH 6 0
BBX 5 6 0 0
BITMAP
88
88
88
88
88
70
ENDCHAR
STARTCHAR V
ENCODING 86
SWIDTH 594 0
DWIDTH 5 0
BBX 5 6 0 0
BITMAP
88
C8
50
50
70
30
ENDCHAR
STARTCHAR W
ENCODING 87
SWIDTH 849 0
DWIDTH 8 0
BBX 7 6 0 0
BITMAP
92
9A
6A
6A
6C
64
ENDCHAR
STARTCHAR X
ENCODING 88
SWIDTH 606 0
DWIDTH 5 0
BBX 5 6 0 0
BITMAP
D8
50
20
30
50
C8
ENDCHAR
STARTCHAR Y
ENCODING 89
SWIDTH 569 0
DWIDTH 5 0
BBX 5 6 0 0
BITMAP
98
50
70
20
20
20
ENDCHAR
STARTCHAR Z
ENCODING 90
SWIDTH 528 0
DWIDTH 5 0
BBX 4 6 0 0
BITMAP
F0
10
20
40
C0
F0
ENDCHAR
STARTCHAR bracketleft
ENCODING 91
SWIDTH 1295 0
DWIDTH 12 0
BBX 8 5 2 0
BITMAP
3E
3D
3E
3C
FE
ENDCHAR
STARTCHAR backslash
ENCODING 92
SWIDTH 1295 0
DWIDTH 12 0
BBX 8 8 1 -2
BITMAP
C3
67
36
18
3C
66
C3
01
ENDCHAR
STARTCHAR bracketright
ENCODING 93
SWIDTH 1295 0
DWIDTH 12 0
BBX 5 8 3 -2
BITMAP
F0
F8
F8
F0
20
20
20
F0
ENDCHAR
STARTCHAR a
ENCODING 97
SWIDTH 525 0
DWIDTH 5 0
BBX 4 5 0 0
BITMAP
70
90
70
90
F0
ENDCHAR
STARTCHAR b
ENCODING 98
SWIDTH 555 0
DWIDTH 5 0
BBX 4 6 0 0
BITMAP
80
A0
D0
90
90
F0
ENDCHAR
STARTCHAR c
ENCODING 99
SWIDTH 515 0
DWIDTH 5 0
BBX 4 5 0 0
BITMAP
70
90
80
90
70
ENDCHAR
STARTCHAR d
ENCODING 100
SWIDTH 555 0
DWIDTH 5 0
BBX 4 6 0 0
BITMAP
10
70
90
90
90
70
ENDCHAR
STARTCHAR e
ENCODING 101
SWIDTH 534 0
DWIDTH 5 0
BBX 4 5 0 0
BITMAP
70
90
F0
80
70
ENDCHAR
STARTCHAR f
ENCODING 102
SWIDTH 319 0
DWIDTH 3 0
BBX 3 6 0 0
BITMAP
60
E0
40
40
40
40
ENDCHAR
STARTCHAR g
ENCODING 103
SWIDTH 539 0
DWIDTH 5 0
BBX 4 6 0 -1
BITMAP
70
90
90
90
70
F0
ENDCHAR
STARTCHAR h
ENCODING 104
SWIDTH 530 0
DWIDTH 5 0
BBX 4 6 0 0
BITMAP
80
E0
90
90
90
90
ENDCHAR
STARTCHAR i
ENCODING 105
SWIDTH 219 0
DWIDTH 2 0
BBX 1 6 0 0
BITMAP
80
80
80
80
80
80
ENDCHAR
STARTCHAR j
ENCODING 106
SWIDTH 239 0
DWIDTH 2 0
BBX 1 7 1 -1
BITMAP
80
80
80
80
80
80
80
ENDCHAR
STARTCHAR k
ENCODING 107
SWIDTH 523 0
DWIDTH 5 0
BBX 4 6 0 0
BITMAP
80
B0
A0
E0
A0
90
ENDCHAR
STARTCHAR l
ENCODING 108
SWIDTH 218 0
DWIDTH 2 0
BBX 1 6 0 0
BITMAP
80
80
80
80
80
80
ENDCHAR
STARTCHAR m
ENCODING 109
SWIDTH 788 0
DWIDTH 7 0
BBX 6 5 0 0
BITMAP
EC
B4
94
94
94
ENDCHAR
STARTCHAR n
ENCODING 110
SWIDTH 534 0
DWIDTH 5 0
BBX 4 5 0 0
BITMAP
F0
90
90
90
90
ENDCHAR
STARTCHAR o
ENCODING 111
SWIDTH 541 0
DWIDTH 5 0
BBX 4 5 0 0
BITMAP
70
90
90
90
70
ENDCHAR
STARTCHAR p
ENCODING 112
SWIDTH 557 0
DWIDTH 5 0
BBX 4 6 0 -1
BITMAP
F0
90
90
90
F0
80
ENDCHAR
STARTCHAR q
ENCODING 113
SWIDTH 557 0
DWIDTH 5 0
BBX 4 6 0 -1
BITMAP
70
90
90
90
70
10
ENDCHAR
STARTCHAR r
ENCODING 114
SWIDTH 345 0
DWIDTH 3 0
BBX 3 5 0 0
BITMAP
E0
C0
80
80
80
ENDCHAR
STARTCHAR s
ENCODING 115
SWIDTH 505 0
DWIDTH 5 0
BBX 4 5 0 0
BITMAP
60
90
F0
10
F0
ENDCHAR
STARTCHAR t
ENCODING 116
SWIDTH 328 0
DWIDTH 3 0
BBX 3 6 0 0
BITMAP
40
E0
40
40
40
60
ENDCHAR
STARTCHAR u
ENCODING 117
SWIDTH 531 0
DWIDTH 5 0
BBX 4 5 0 0
BITMAP
90
90
90
90
F0
ENDCHAR
STARTCHAR v
ENCODING 118
SWIDTH 525 0
DWIDTH 5 0
BBX 4 5 0 0
BITMAP
90
D0
50
60
60
ENDCHAR
STARTCHAR w
ENCODING 119
SWIDTH 750 0
DWIDTH 7 0
BBX 6 5 0 0
BITMAP
94
B4
74
6C
68
ENDCHAR
STARTCHAR x
ENCODING 120
SWIDTH 508 0
DWIDTH 5 0
BBX 4 5 0 0
BITMAP
D0
60
60
60
90
ENDCHAR
STARTCHAR y
ENCODING 121
SWIDTH 501 0
DWIDTH 5 0
BBX 4 6 0 -1
BITMAP
90
50
60
60
20
40
ENDCHAR
STARTCHAR z
ENCODING 122
SWIDTH 444 0
DWIDTH 4 0
BBX 4 5 0 0
BITMAP
F0
20
40
40
F0
ENDCHAR
STARTCHAR braceleft
ENCODING 123
SWIDTH 1296 0
DWIDTH 12 0
BBX 8 9 2 -2
BITMAP
20
20
20
38
E0
BC
82
87
78
ENDCHAR
STARTCHAR braceright
ENCODING 125
SWIDTH 1296 0
DWIDTH 12 0
BBX 8 9 2 -2
BITMAP
04
04
04
0C
05
3D
41
D1
1E
ENDCHAR
STARTCHAR nonbreakingspace
ENCODING 160
SWIDTH 199 0
DWIDTH 2 0
BBX 1 1 0 0
BITMAP
00
ENDCHAR
STARTCHAR exclamdown
ENCODING 161
SWIDTH 993 0
DWIDTH 9 0
BBX 9 9 0 -2
BITMAP
FF80
C580
C180
FD80
CB80
D980
F580
C580
FF80
ENDCHAR
STARTCHAR cent
ENCODING 162
SWIDTH 1002 0
DWIDTH 9 0
BBX 9 9 0 -2
BITMAP
FF80
EF80
FF80
E580
F780
F380
E880
EF80
FF80
ENDCHAR
STARTCHAR sterling
ENCODING 163
SWIDTH 569 0
DWIDTH 5 0
BBX 4 6 0 0
BITMAP
70
90
80
E0
40
F0
ENDCHAR
STARTCHAR yen
ENCODING 165
SWIDTH 1296 0
DWIDTH 12 0
BBX 11 5 0 0
BITMAP
FFE0
AA60
FFE0
FFE0
7FE0
ENDCHAR
STARTCHAR section
ENCODING 167
SWIDTH 1295 0
DWIDTH 12 0
BBX 9 8 1 -2
BITMAP
8100
FF00
BF00
AF00
BF00
BF00
FF80
8100
ENDCHAR
STARTCHAR copyright
ENCODING 169
SWIDTH 1296 0
DWIDTH 12 0
BBX 7 7 2 -1
BITMAP
02
46
CC
D8
F0
E0
FC
ENDCHAR
STARTCHAR ordfeminine
ENCODING 170
SWIDTH 1296 0
DWIDTH 12 0
BBX 9 9 1 -2
BITMAP
6000
E180
E080
0180
0180
0F80
6F00
BB80
F800
ENDCHAR
STARTCHAR guillemotleft
ENCODING 171
SWIDTH 445 0
DWIDTH 4 0
BBX 3 4 0 0
BITMAP
A0
C0
C0
A0
ENDCHAR
STARTCHAR logicalnot
ENCODING 172
SWIDTH 1296 0
DWIDTH 12 0
BBX 7 7 2 -1
BITMAP
F8
FC
F0
F8
DC
4E
02
ENDCHAR
STARTCHAR registered
ENCODING 174
SWIDTH 1296 0
DWIDTH 12 0
BBX 9 7 1 -1
BITMAP
1C00
2300
4100
FF80
FF80
2300
1E00
ENDCHAR
STARTCHAR mu
ENCODING 181
SWIDTH 1296 0
DWIDTH 12 0
BBX 9 9 1 -2
BITMAP
3F80
3F80
0080
1880
FC80
0880
1080
0080
3F80
ENDCHAR
STARTCHAR paragraph
ENCODING 182
SWIDTH 1295 0
DWIDTH 12 0
BBX 8 9 2 -2
BITMAP
FF
99
FF
EF
FF
FF
FF
0C
3C
ENDCHAR
STARTCHAR periodcentered
ENCODING 183
SWIDTH 261 0
DWIDTH 2 0
BBX 1 2 0 2
BITMAP
80
80
ENDCHAR
STARTCHAR ordmasculine
ENCODING 186
SWIDTH 1295 0
DWIDTH 12 0
BBX 8 9 1 -2
BITMAP
A0
E1
E9
03
09
03
0C
0F
08
ENDCHAR
STARTCHAR guillemotright
ENCODING 187
SWIDTH 445 0
DWIDTH 4 0
BBX 3 4 1 0
BITMAP
C0
A0
A0
C0
ENDCHAR
STARTCHAR Acircumflex
ENCODING 194
SWIDTH 612 0
DWIDTH 6 0
BBX 5 7 0 0
BITMAP
50
30
70
50
58
F8
88
ENDCHAR
STARTCHAR Ccedilla
ENCODING 199
SWIDTH 614 0
DWIDTH 6 0
BBX 5 8 0 -2
BITMAP
70
C8
80
80
88
70
20
20
ENDCHAR
STARTCHAR Egrave
ENCODING 200
SWIDTH 552 0
DWIDTH 5 0
BBX 4 7 0 0
BITMAP
40
F0
80
80
E0
80
F0
ENDCHAR
STARTCHAR Eacute
ENCODING 201
SWIDTH 552 0
DWIDTH 5 0
BBX 4 7 0 0
BITMAP
20
F0
80
80
E0
80
F0
ENDCHAR
STARTCHAR Ecircumflex
ENCODING 202
SWIDTH 552 0
DWIDTH 5 0
BBX 4 7 0 0
BITMAP
60
F0
80
80
E0
80
F0
ENDCHAR
STARTCHAR Igrave
ENCODING 204
SWIDTH 241 0
DWIDTH 2 0
BBX 1 7 0 0
BITMAP
80
80
80
80
80
80
80
ENDCHAR
STARTCHAR Ograve
ENCODING 210
SWIDTH 652 0
DWIDTH 6 0
BBX 5 7 0 0
BITMAP
20
70
C8
88
88
88
70
ENDCHAR
STARTCHAR Ocircumflex
ENCODING 212
SWIDTH 652 0
DWIDTH 6 0
BBX 5 7 0 0
BITMAP
10
70
C8
88
88
88
70
ENDCHAR
STARTCHAR Ugrave
ENCODING 217
SWIDTH 639 0
DWIDTH 6 0
BBX 5 7 0 0
BITMAP
20
88
88
88
88
88
70
ENDCHAR
STARTCHAR germandbls
ENCODING 223
SWIDTH 1296 0
DWIDTH 12 0
BBX 10 7 1 -1
BITMAP
0E00
0700
0380
FFC0
FF80
0700
0E00
ENDCHAR
STARTCHAR agrave
ENCODING 224
SWIDTH 523 0
DWIDTH 5 0
BBX 4 5 0 0
BITMAP
70
90
70
90
F0
ENDCHAR
STARTCHAR acircumflex
ENCODING 226
SWIDTH 523 0
DWIDTH 5 0
BBX 4 6 0 0
BITMAP
60
70
90
70
90
F0
ENDCHAR
STARTCHAR aring
ENCODING 229
SWIDTH 1296 0
DWIDTH 12 0
BBX 10 7 1 -1
BITMAP
1800
3000
6000
FFC0
7FC0
3000
1800
ENDCHAR
STARTCHAR ae
ENCODING 230
SWIDTH 875 0
DWIDTH 8 0
BBX 7 5 0 0
BITMAP
7E
92
7E
90
FE
ENDCHAR
STARTCHAR ccedilla
ENCODING 231
SWIDTH 510 0
DWIDTH 5 0
BBX 4 6 0 -1
BITMAP
70
90
80
90
70
20
ENDCHAR
STARTCHAR egrave
ENCODING 232
SWIDTH 527 0
DWIDTH 5 0
BBX 4 5 0 0
BITMAP
70
90
F0
80
70
ENDCHAR
STARTCHAR eacute
ENCODING 233
SWIDTH 527 0
DWIDTH 5 0
BBX 4 5 0 0
BITMAP
70
90
F0
80
70
ENDCHAR
STARTCHAR ecircumflex
ENCODING 234
SWIDTH 527 0
DWIDTH 5 0
BBX 4 6 0 0
BITMAP
60
70
90
F0
80
70
ENDCHAR
STARTCHAR edieresis
ENCODING 235
SWIDTH 527 0
DWIDTH 5 0
BBX 4 5 0 0
BITMAP
70
90
F0
80
70
ENDCHAR
STARTCHAR icircumflex
ENCODING 238
SWIDTH 219 0
DWIDTH 2 0
BBX 1 6 0 0
BITMAP
80
80
80
80
80
80
ENDCHAR
STARTCHAR idieresis
ENCODING 239
SWIDTH 219 0
DWIDTH 2 0
BBX 1 5 0 0
BITMAP
80
80
80
80
80
ENDCHAR
STARTCHAR ocircumflex
ENCODING 244
SWIDTH 534 0
DWIDTH 5 0
BBX 4 6 0 0
BITMAP
60
70
90
90
90
70
ENDCHAR
STARTCHAR divide
ENCODING 247
SWIDTH 1296 0
DWIDTH 12 0
BBX 9 9 1 -2
BITMAP
0800
0800
AA80
BE80
9C80
8880
8080
8080
FF80
ENDCHAR
STARTCHAR oslash
ENCODING 248
SWIDTH 1296 0
DWIDTH 12 0
BBX 11 5 0 0
BITMAP
FFE0
D4A0
FFE0
FFE0
FF80
ENDCHAR
STARTCHAR ugrave
ENCODING 249
SWIDTH 524 0
DWIDTH 5 0
BBX 4 5 0 0
BITMAP
90
90
90
90
F0
ENDCHAR
STARTCHAR ucircumflex
ENCODING 251
SWIDTH 524 0
DWIDTH 5 0
BBX 4 6 0 0
BITMAP
60
90
90
90
90
F0
ENDCHAR
STARTCHAR udieresis
ENCODING 252
SWIDTH 524 0
DWIDTH 5 0
BBX 4 5 0 0
BITMAP
90
90
90
90
F0
ENDCHAR
STARTCHAR oe
ENCODING 339
SWIDTH 909 0
DWIDTH 8 0
BBX 8 5 0 0
BITMAP
6E
9B
9F
98
7E
ENDCHAR
STARTCHAR florin
ENCODING 402
SWIDTH 1296 0
DWIDTH 12 0
BBX 7 10 2 -3
BITMAP
30
30
30
30
B2
F6
FE
7C
38
10
ENDCHAR
STARTCHAR Delta
ENCODING 916
SWIDTH 1296 0
DWIDTH 12 0
BBX 7 7 2 -1
BITMAP
40
E4
72
3A
1E
0E
3E
ENDCHAR
STARTCHAR Omega
ENCODING 937
SWIDTH 1296 0
DWIDTH 12 0
BBX 9 9 1 -2
BITMAP
3F80
3F80
0080
6080
FC80
4080
2080
0080
3F80
ENDCHAR
STARTCHAR mu.dup1
ENCODING 956
SWIDTH 1296 0
DWIDTH 12 0
BBX 9 9 1 -2
BITMAP
3F80
3F80
0080
1880
FC80
0880
1080
0080
3F80
ENDCHAR
STARTCHAR pi
ENCODING 960
SWIDTH 1296 0
DWIDTH 12 0
BBX 11 6 0 -1
BITMAP
0100
4100
4F00
5E80
FFE0
FFE0
ENDCHAR
STARTCHAR hyphen.dup2
ENCODING 8208
SWIDTH 272 0
DWIDTH 2 0
BBX 2 1 0 2
BITMAP
C0
ENDCHAR
STARTCHAR endash
ENCODING 8211
SWIDTH 397 0
DWIDTH 4 0
BBX 3 1 0 2
BITMAP
E0
ENDCHAR
STARTCHAR emdash
ENCODING 8212
SWIDTH 786 0
DWIDTH 7 0
BBX 5 1 1 2
BITMAP
F8
ENDCHAR
STARTCHAR quoteleft
ENCODING 8216
SWIDTH 166 0
DWIDTH 2 0
BBX 1 1 0 5
BITMAP
00
ENDCHAR
STARTCHAR quoteright
ENCODING 8217
SWIDTH 165 0
DWIDTH 1 0
BBX 1 1 0 5
BITMAP
80
ENDCHAR
STARTCHAR quotedblleft
ENCODING 8220
SWIDTH 1296 0
DWIDTH 12 0
BBX 11 6 0 -1
BITMAP
1000
1080
3680
2F80
FFE0
FFE0
ENDCHAR
STARTCHAR dagger
ENCODING 8224
SWIDTH 1295 0
DWIDTH 12 0
BBX 8 8 2 -2
BITMAP
7C
82
82
FF
C5
FF
FF
C2
ENDCHAR
STARTCHAR bullet
ENCODING 8226
SWIDTH 1296 0
DWIDTH 12 0
BBX 9 9 1 -2
BITMAP
0180
0380
0280
3900
DF00
DF00
FF00
FF00
FF00
ENDCHAR
STARTCHAR ellipsis
ENCODING 8230
SWIDTH 1296 0
DWIDTH 12 0
BBX 7 7 2 -1
BITMAP
3E
7E
0E
3A
72
E2
40
ENDCHAR
STARTCHAR trademark
ENCODING 8482
SWIDTH 993 0
DWIDTH 9 0
BBX 9 9 0 -2
BITMAP
FF80
D180
C180
DF80
E980
CD80
D680
D180
FF80
ENDCHAR
STARTCHAR Omega.dup3
ENCODING 8486
SWIDTH 1296 0
DWIDTH 12 0
BBX 9 9 1 -2
BITMAP
3F80
3F80
0080
6080
FC80
4080
2080
0080
3F80
ENDCHAR
STARTCHAR partialdiff
ENCODING 8706
SWIDTH 1296 0
DWIDTH 12 0
BBX 7 10 2 -3
BITMAP
10
38
7C
F6
B2
30
30
30
30
30
ENDCHAR
STARTCHAR Delta.dup4
ENCODING 8710
SWIDTH 1296 0
DWIDTH 12 0
BBX 7 7 2 -1
BITMAP
40
E4
72
3A
1E
0E
3E
ENDCHAR
STARTCHAR periodcentered.dup5
ENCODING 8729
SWIDTH 261 0
DWIDTH 2 0
BBX 1 2 0 2
BITMAP
80
80
ENDCHAR
STARTCHAR radical
ENCODING 8730
SWIDTH 1296 0
DWIDTH 12 0
BBX 9 9 1 -2
BITMAP
0800
1C00
BE80
AA80
8880
8880
8080
8080
FF80
ENDCHAR
STARTCHAR infinity
ENCODING 8734
SWIDTH 1296 0
DWIDTH 12 0
BBX 8 9 2 -2
BITMAP
80
80
9C
AD
AD
BD
80
7F
41
ENDCHAR
STARTCHAR integral
ENCODING 8747
SWIDTH 1296 0
DWIDTH 12 0
BBX 9 9 1 -2
BITMAP
FF80
8080
8080
8880
8880
8880
AA80
1C00
0800
ENDCHAR
STARTCHAR approxequal
ENCODING 8776
SWIDTH 1296 0
DWIDTH 12 0
BBX 9 9 1 -2
BITMAP
FE00
FE00
8000
8300
9F80
8100
8200
8000
FE00
ENDCHAR
STARTCHAR notequal
ENCODING 8800
SWIDTH 1295 0
DWIDTH 12 0
BBX 8 8 2 -2
BITMAP
24
66
FF
E7
E7
E7
42
3C
ENDCHAR
STARTCHAR lessequal
ENCODING 8804
SWIDTH 1295 0
DWIDTH 12 0
BBX 9 9 1 -2
BITMAP
FE00
FE00
8000
8400
8F80
8C00
8600
8000
FE00
ENDCHAR
STARTCHAR greaterequal
ENCODING 8805
SWIDTH 1296 0
DWIDTH 12 0
BBX 9 9 1 -2
BITMAP
FF80
8080
8080
8080
9C80
BE80
AA80
0800
0800
ENDCHAR
STARTCHAR approxequal.dup6
ENCODING 8946
SWIDTH 1296 0
DWIDTH 12 0
BBX 9 9 1 -2
BITMAP
FE00
FE00
8000
8300
9F80
8100
8200
8000
FE00
ENDCHAR
STARTCHAR .notdef
ENCODING -1
SWIDTH 500 0
DWIDTH 5 0
BBX 3 7 1 0
BITMAP
E0
A0
A0
A0
A0
A0
E0
ENDCHAR
STARTCHAR .null
ENCODING -1
SWIDTH 0 0
DWIDTH 0 0
BBX 1 1 0 0
BITMAP
00
ENDCHAR
STARTCHAR nonmarkingreturn
ENCODING -1
SWIDTH 199 0
DWIDTH 2 0
BBX 1 1 0 0
BITMAP
00
ENDCHAR
STARTCHAR glyph156
ENCODING -1
SWIDTH 333 0
DWIDTH 3 0
BBX 1 1 0 0
BITMAP
00
ENDCHAR
STARTCHAR summmation
ENCODING -1
SWIDTH 1295 0
DWIDTH 12 0
BBX 6 9 2 -2
BITMAP
30
4C
B4
84
7C
7C
B4
78
84
ENDCHAR
ENDFONT
